<svg xmlns="http://www.w3.org/2000/svg" width="41" height="41" fill="none" viewBox="0 0 41 41">
    <path fill="#0259DB" d="M1.64 13.12H0v14.76h1.64v3.28h1.64v1.64h1.64v1.64h1.64v1.64H8.2v1.64h1.64v1.64h3.28V41h14.76v-1.64h3.28v-1.64h1.64v-1.64h1.64v-1.64h1.64V32.8h1.64v-1.64h1.64v-3.28H41V13.12h-1.64V9.84h-1.64V8.2h-1.64V6.56h-1.64V4.92H32.8V3.28h-1.64V1.64h-3.28V0H13.12v1.64H9.84v1.64H8.2v1.64H6.56v1.64H4.92V8.2H3.28v1.64H1.64v3.28z"/>
    <path fill="#00ABF0" d="M3.28 13.12H1.64v14.76h1.64v3.28h1.64v1.64h1.64v1.64H8.2v1.64h1.64v1.64h3.28v1.64h14.76v-1.64h3.28v-1.64h1.64v-1.64h1.64V32.8h1.64v-1.64h1.64v-3.28h1.64V13.12h-1.64V9.84h-1.64V8.2h-1.64V6.56H32.8V4.92h-1.64V3.28h-3.28V1.64H13.12v1.64H9.84v1.64H8.2v1.64H6.56V8.2H4.92v1.64H3.28v3.28z"/>
    <path fill="#0BB9FF" d="M1.64 13.12h1.64v14.76H1.64zM3.28 9.84h1.64v3.28H3.28zM4.92 8.2h1.64v1.64H4.92zM6.56 6.56H8.2V8.2H6.56zM8.2 4.92h1.64v1.64H8.2zM9.84 3.28h3.28v1.64H9.84zM13.12 1.64h14.76v1.64H13.12zM27.88 3.28h3.28v1.64h-3.28zM31.16 4.92h1.64v1.64h-1.64zM32.8 6.56h1.64V8.2H32.8z"/>
    <path fill="#0087E5" d="M37.72 13.12h1.64v14.76h-1.64zM36.08 27.88h1.64v3.28h-1.64zM34.44 31.16h1.64v1.64h-1.64zM32.8 32.8h1.64v1.64H32.8zM31.16 34.44h1.64v1.64h-1.64zM27.88 36.08h3.28v1.64h-3.28zM13.12 37.72h14.76v1.64H13.12zM9.84 36.08h3.28v1.64H9.84zM8.2 34.44h1.64v1.64H8.2zM6.56 32.8H8.2v1.64H6.56zM4.92 31.16h1.64v1.64H4.92z"/>
    <path fill="#fff" d="M13.12 9.84h-1.64v19.68h1.64v1.64h1.64v1.64h13.12v-1.64h1.64v-1.64h-1.64v-1.64H16.4v-6.56h11.48v-1.64h1.64v-1.64h-1.64V16.4H16.4V9.84h-1.64V8.2h-1.64v1.64z"/>
    <path fill="#7FD5F7" d="M11.48 8.2h1.64v1.64h-1.64zM14.76 8.2h1.64v1.64h-1.64zM16.4 26.24h1.64v1.64H16.4zM27.88 16.4h1.64v1.64h-1.64zM27.88 19.68h1.64v1.64h-1.64zM27.88 27.88h1.64v1.64h-1.64zM27.88 31.16h1.64v1.64h-1.64zM11.48 29.52h1.64v1.64h-1.64zM13.12 31.16h1.64v1.64h-1.64z"/>
</svg>
